<svg xmlns="http://www.w3.org/2000/svg" xmlns:xlink="http://www.w3.org/1999/xlink" version="1.1" width="256" height="256" viewBox="0 0 256 256" xml:space="preserve">

<defs>
</defs>
<g style="stroke: none; stroke-width: 0; stroke-dasharray: none; stroke-linecap: butt; stroke-linejoin: miter; stroke-miterlimit: 10; fill: none; fill-rule: nonzero; opacity: 1;" transform="translate(1.4065934065934016 1.4065934065934016) scale(2.81 2.81)" >
	<path d="M 71.783 44.624 l -0.012 0.004 c -6.062 1.895 -11.427 5.513 -15.43 10.165 c -4.024 4.648 -6.649 10.317 -7.771 16.164 c 1.775 -5.69 4.969 -10.85 9.223 -14.766 c 4.236 -3.927 9.495 -6.605 14.973 -7.656 c 0.074 -0.014 0.149 -0.033 0.222 -0.056 c 1.065 -0.333 1.658 -1.466 1.325 -2.53 C 73.981 44.885 72.848 44.292 71.783 44.624 z" style="stroke: none; stroke-width: 1; stroke-dasharray: none; stroke-linecap: butt; stroke-linejoin: miter; stroke-miterlimit: 10; fill: rgb(0,0,0); fill-rule: nonzero; opacity: 1;" transform=" matrix(1 0 0 1 0 0) " stroke-linecap="round" />
	<path d="M 89.936 41.618 c -0.069 -0.05 -0.166 -0.034 -0.215 0.036 c -0.862 1.2 -1.739 2.338 -2.678 3.386 c -0.941 1.046 -1.947 1.994 -3.015 2.847 c -1.075 0.847 -2.202 1.609 -3.393 2.281 c -0.422 0.238 -0.853 0.466 -1.283 0.695 c 0.088 -1.858 0.04 -3.714 -0.109 -5.538 l -0.007 -0.084 c -0.018 -0.222 -0.107 -0.441 -0.268 -0.62 c -1.511 -1.68 -3.111 -3.327 -4.921 -4.76 c 2.089 -0.316 4.219 -0.42 6.348 -0.29 c 2.823 0.179 5.635 0.778 8.321 1.785 c 0.071 0.026 0.154 -0.004 0.189 -0.074 c 0.038 -0.075 0.008 -0.166 -0.067 -0.203 c -2.593 -1.305 -5.421 -2.169 -8.324 -2.606 c -2.904 -0.445 -5.894 -0.447 -8.827 0.012 c -0.216 0.034 -0.421 0.149 -0.564 0.337 c -0.294 0.387 -0.218 0.938 0.168 1.232 l 0.05 0.038 c 2.083 1.582 3.859 3.596 5.525 5.703 c 0 1.199 -0.051 2.393 -0.169 3.574 c -0.138 1.298 -0.368 2.576 -0.636 3.839 c -0.062 0.288 -0.04 0.595 0.079 0.888 c 0.317 0.776 1.202 1.148 1.978 0.831 l 0.075 -0.03 c 1.406 -0.574 2.786 -1.263 4.064 -2.132 c 1.276 -0.866 2.482 -1.862 3.528 -3.006 c 2.112 -2.273 3.585 -5.071 4.213 -7.984 C 90.009 41.718 89.987 41.655 89.936 41.618 z" style="stroke: none; stroke-width: 1; stroke-dasharray: none; stroke-linecap: butt; stroke-linejoin: miter; stroke-miterlimit: 10; fill: rgb(0,0,0); fill-rule: nonzero; opacity: 1;" transform=" matrix(1 0 0 1 0 0) " stroke-linecap="round" />
	<path d="M 27.146 48.279 c -2.641 -2.024 -5.677 -3.609 -8.917 -4.615 c -0.067 -0.021 -0.142 -0.04 -0.212 -0.054 c -1.094 -0.216 -2.156 0.495 -2.372 1.589 c -0.216 1.094 0.495 2.156 1.589 2.372 c 2.869 0.567 5.65 1.649 8.201 3.201 c 2.554 1.548 4.87 3.557 6.894 5.863 c 4.063 4.631 6.942 10.333 9.1 16.252 c -1.522 -6.111 -3.775 -12.174 -7.515 -17.498 C 32.046 52.739 29.794 50.3 27.146 48.279 z" style="stroke: none; stroke-width: 1; stroke-dasharray: none; stroke-linecap: butt; stroke-linejoin: miter; stroke-miterlimit: 10; fill: rgb(0,0,0); fill-rule: nonzero; opacity: 1;" transform=" matrix(1 0 0 1 0 0) " stroke-linecap="round" />
	<path d="M 18.66 39.128 l 0.052 -0.04 c 0.174 -0.133 0.298 -0.33 0.335 -0.563 c 0.075 -0.48 -0.253 -0.929 -0.732 -1.004 c -2.933 -0.459 -5.923 -0.458 -8.827 -0.012 c -2.903 0.437 -5.731 1.301 -8.324 2.606 c -0.068 0.035 -0.101 0.116 -0.074 0.189 c 0.03 0.078 0.117 0.118 0.195 0.088 c 2.685 -1.007 5.498 -1.606 8.321 -1.784 c 2.129 -0.129 4.259 -0.025 6.348 0.29 c -1.811 1.433 -3.411 3.08 -4.921 4.76 c -0.149 0.166 -0.248 0.381 -0.267 0.62 l -0.007 0.083 c -0.15 1.824 -0.197 3.68 -0.109 5.538 c -0.43 -0.229 -0.861 -0.457 -1.283 -0.695 c -1.191 -0.672 -2.318 -1.435 -3.393 -2.281 c -1.068 -0.853 -2.074 -1.801 -3.015 -2.847 c -0.939 -1.048 -1.816 -2.186 -2.678 -3.386 c -0.035 -0.048 -0.096 -0.074 -0.158 -0.061 c -0.083 0.018 -0.136 0.1 -0.118 0.184 c 0.628 2.913 2.101 5.711 4.213 7.984 c 1.046 1.143 2.252 2.139 3.528 3.006 c 1.278 0.869 2.657 1.558 4.064 2.132 l 0.074 0.03 c 0.272 0.111 0.58 0.145 0.889 0.08 c 0.82 -0.174 1.343 -0.979 1.169 -1.799 c -0.268 -1.263 -0.498 -2.541 -0.636 -3.839 c -0.118 -1.181 -0.169 -2.374 -0.169 -3.574 C 14.801 42.724 16.578 40.71 18.66 39.128 z" style="stroke: none; stroke-width: 1; stroke-dasharray: none; stroke-linecap: butt; stroke-linejoin: miter; stroke-miterlimit: 10; fill: rgb(0,0,0); fill-rule: nonzero; opacity: 1;" transform=" matrix(1 0 0 1 0 0) " stroke-linecap="round" />
	<path d="M 40.878 43.896 c -0.642 -2.613 -1.694 -5.159 -3.008 -7.52 c -1.313 -2.366 -2.845 -4.558 -4.395 -6.69 c -0.049 -0.066 -0.109 -0.14 -0.167 -0.201 c -0.767 -0.81 -2.046 -0.845 -2.856 -0.078 s -0.845 2.046 -0.078 2.856 l 0.004 0.004 c 1.759 1.857 3.465 3.733 4.945 5.739 c 1.481 2.004 2.722 4.159 3.632 6.496 c 1.837 4.685 2.35 9.929 2.668 15.095 c 0.182 -2.591 0.302 -5.194 0.238 -7.817 C 41.797 49.161 41.53 46.51 40.878 43.896 z" style="stroke: none; stroke-width: 1; stroke-dasharray: none; stroke-linecap: butt; stroke-linejoin: miter; stroke-miterlimit: 10; fill: rgb(0,0,0); fill-rule: nonzero; opacity: 1;" transform=" matrix(1 0 0 1 0 0) " stroke-linecap="round" />
	<path d="M 20.292 30.598 c 0.684 1.385 1.546 2.664 2.487 3.856 l 0.049 0.063 c 0.182 0.231 0.433 0.412 0.735 0.507 c 0.799 0.252 1.651 -0.191 1.903 -0.99 c 0.388 -1.231 0.818 -2.456 1.337 -3.654 c 0.479 -1.086 1.022 -2.15 1.613 -3.194 c 2.488 -1.013 5.026 -1.892 7.617 -2.243 l 0.065 -0.009 c 0.216 -0.03 0.422 -0.14 0.569 -0.325 c 0.301 -0.38 0.237 -0.933 -0.143 -1.235 c -2.327 -1.844 -4.93 -3.315 -7.677 -4.357 c -2.742 -1.049 -5.629 -1.689 -8.528 -1.83 c -0.076 -0.003 -0.145 0.051 -0.157 0.128 c -0.013 0.083 0.044 0.16 0.127 0.173 c 2.833 0.446 5.576 1.31 8.121 2.544 c 1.915 0.935 3.716 2.073 5.378 3.375 c -2.281 0.356 -4.482 1.005 -6.623 1.723 c -0.212 0.071 -0.403 0.209 -0.538 0.408 l -0.047 0.069 c -1.028 1.514 -1.983 3.105 -2.822 4.766 c -0.262 -0.411 -0.524 -0.821 -0.775 -1.237 c -0.705 -1.171 -1.311 -2.39 -1.83 -3.656 c -0.51 -1.269 -0.918 -2.589 -1.222 -3.963 c -0.301 -1.374 -0.504 -2.797 -0.664 -4.266 c -0.007 -0.059 -0.047 -0.112 -0.107 -0.131 c -0.081 -0.025 -0.168 0.02 -0.193 0.101 c -0.888 2.845 -0.984 6.005 -0.265 9.023 C 19.048 27.755 19.607 29.216 20.292 30.598 z" style="stroke: none; stroke-width: 1; stroke-dasharray: none; stroke-linecap: butt; stroke-linejoin: miter; stroke-miterlimit: 10; fill: rgb(0,0,0); fill-rule: nonzero; opacity: 1;" transform=" matrix(1 0 0 1 0 0) " stroke-linecap="round" />
	<path d="M 57.693 32.268 c 0.052 -0.055 0.102 -0.115 0.148 -0.176 c 0.667 -0.894 0.484 -2.159 -0.41 -2.827 c -0.894 -0.668 -2.159 -0.484 -2.827 0.41 l -0.009 0.012 c -1.924 2.575 -3.512 5.382 -4.729 8.307 c -1.221 2.926 -2.075 5.962 -2.641 9.019 c -1.127 6.125 -1.157 12.295 -0.779 18.375 c 0.29 -6.084 1.009 -12.168 2.738 -17.9 C 50.893 41.758 53.732 36.472 57.693 32.268 z" style="stroke: none; stroke-width: 1; stroke-dasharray: none; stroke-linecap: butt; stroke-linejoin: miter; stroke-miterlimit: 10; fill: rgb(0,0,0); fill-rule: nonzero; opacity: 1;" transform=" matrix(1 0 0 1 0 0) " stroke-linecap="round" />
	<path d="M 51.975 24.934 l 0.063 0.008 c 2.592 0.352 5.129 1.23 7.617 2.243 c 0.591 1.044 1.134 2.108 1.612 3.194 c 0.519 1.198 0.948 2.423 1.337 3.654 c 0.088 0.281 0.258 0.538 0.507 0.734 c 0.658 0.519 1.612 0.407 2.131 -0.25 l 0.05 -0.063 c 0.941 -1.192 1.803 -2.471 2.487 -3.856 c 0.684 -1.382 1.243 -2.843 1.591 -4.353 c 0.719 -3.019 0.623 -6.179 -0.265 -9.023 c -0.018 -0.057 -0.068 -0.101 -0.131 -0.108 c -0.085 -0.009 -0.161 0.052 -0.17 0.137 c -0.16 1.469 -0.363 2.892 -0.664 4.266 c -0.304 1.374 -0.713 2.694 -1.222 3.963 c -0.518 1.266 -1.125 2.485 -1.83 3.656 c -0.25 0.415 -0.513 0.826 -0.775 1.237 c -0.838 -1.661 -1.793 -3.252 -2.822 -4.766 l -0.047 -0.069 c -0.125 -0.185 -0.31 -0.331 -0.538 -0.408 c -2.141 -0.718 -4.342 -1.367 -6.623 -1.723 c 1.662 -1.302 3.463 -2.44 5.378 -3.375 c 2.545 -1.234 5.288 -2.098 8.121 -2.544 c 0.075 -0.012 0.132 -0.079 0.128 -0.157 c -0.004 -0.083 -0.075 -0.148 -0.159 -0.144 c -2.899 0.141 -5.786 0.781 -8.528 1.83 c -2.747 1.042 -5.35 2.513 -7.677 4.357 c -0.171 0.136 -0.293 0.337 -0.325 0.571 C 51.157 24.426 51.494 24.869 51.975 24.934 z" style="stroke: none; stroke-width: 1; stroke-dasharray: none; stroke-linecap: butt; stroke-linejoin: miter; stroke-miterlimit: 10; fill: rgb(0,0,0); fill-rule: nonzero; opacity: 1;" transform=" matrix(1 0 0 1 0 0) " stroke-linecap="round" />
</g>
</svg>